<?xml version="1.0" encoding="UTF-8" standalone="no"?>
<!DOCTYPE svg PUBLIC "-//W3C//DTD SVG 1.1//EN" "http://www.w3.org/Graphics/SVG/1.1/DTD/svg11.dtd">
<svg version="1.1" xmlns="http://www.w3.org/2000/svg" xmlns:xlink="http://www.w3.org/1999/xlink" preserveAspectRatio="xMidYMid meet" viewBox="16.128712871287178 35.633651280167186 595.980198019802 523.9009900990097" width="591.98" height="519.9"><defs><path d="M417.13 356.53C417.13 466.92 327.51 556.53 217.13 556.53C106.75 556.53 17.13 466.92 17.13 356.53C17.13 246.15 106.75 156.53 217.13 156.53C327.51 156.53 417.13 246.15 417.13 356.53Z" id="a6CfbwkksN"></path><linearGradient id="gradientc2j07RPhjt" gradientUnits="userSpaceOnUse" x1="25.05" y1="227.82" x2="367.62" y2="460.5"><stop style="stop-color: #ffffff;stop-opacity: 0.8" offset="0%"></stop><stop style="stop-color: #9ac0ff;stop-opacity: 0.62" offset="100%"></stop></linearGradient><path d="M609.11 236.63C609.11 347.02 519.49 436.63 409.11 436.63C325.22 436.63 253.32 384.87 223.64 311.57C214.27 288.42 209.11 263.13 209.11 236.63C209.11 126.25 298.73 36.63 409.11 36.63C519.49 36.63 609.11 126.25 609.11 236.63Z" id="c2UCIgwndS"></path><linearGradient id="gradienta2m7Gcjq43" gradientUnits="userSpaceOnUse" x1="260.59" y1="75.25" x2="539.8" y2="368.32"><stop style="stop-color: #ffffff;stop-opacity: 0.8" offset="0%"></stop><stop style="stop-color: #bae7ff;stop-opacity: 1" offset="100%"></stop></linearGradient></defs><g><g><use xlink:href="#a6CfbwkksN" opacity="1" fill="url(#gradientc2j07RPhjt)"></use></g><g><use xlink:href="#c2UCIgwndS" opacity="1" fill="url(#gradienta2m7Gcjq43)"></use></g></g></svg>